# xmcd
#
# Track frame offsets:
#	150
#	20665
#	37172
#	58642
#	75737
#	93932
#	114722
#	132380
#	151037
#
# Disc length: 2243 seconds
#
# Revision: 1
# Processed by: cddbd v1.5.2PL0 Copyright (c) Steve Scherf et al.
# Submitted via: EasyCDDAExtractor 15.3.0.1
#
DISCID=7008c109
DTITLE=Mambo
DYEAR=1998
DGENRE=Latin
TTITLE0=Ella Tiene
TTITLE1=Por Tu Culpa
TTITLE2=Corazon Partio
TTITLE3=Olvidala Y Dejala
TTITLE4=Llorare
TTITLE5=Mambo Kandela
TTITLE6=Piel De Niña
TTITLE7=A Donde Vas
TTITLE8=Toma Mambo
EXTD=
EXTT0=
EXTT1=
EXTT2=
EXTT3=
EXTT4=
EXTT5=
EXTT6=
EXTT7=
EXTT8=
PLAYORDER=
